<svg width="24" height="24" viewBox="0 0 24 24" fill="none" xmlns="http://www.w3.org/2000/svg">
<g id="carbon:user-avatar">
<path id="Vector" d="M12 6C11.3078 6 10.6311 6.20527 10.0555 6.58986C9.47993 6.97444 9.03133 7.52107 8.76642 8.16061C8.50152 8.80015 8.4322 9.50388 8.56725 10.1828C8.7023 10.8617 9.03564 11.4854 9.52513 11.9749C10.0146 12.4644 10.6383 12.7977 11.3172 12.9327C11.9961 13.0678 12.6999 12.9985 13.3394 12.7336C13.9789 12.4687 14.5256 12.0201 14.9101 11.4445C15.2947 10.8689 15.5 10.1922 15.5 9.5C15.5 8.57174 15.1313 7.6815 14.4749 7.02513C13.8185 6.36875 12.9283 6 12 6ZM12 11.6C11.5847 11.6 11.1786 11.4768 10.8333 11.2461C10.488 11.0153 10.2188 10.6874 10.0599 10.3036C9.90091 9.91991 9.85932 9.49767 9.94035 9.09031C10.0214 8.68295 10.2214 8.30877 10.5151 8.01507C10.8088 7.72138 11.183 7.52138 11.5903 7.44035C11.9977 7.35932 12.4199 7.40091 12.8036 7.55985C13.1874 7.7188 13.5153 7.98796 13.7461 8.3333C13.9768 8.67864 14.1 9.08466 14.1 9.5C14.0994 10.0568 13.878 10.5906 13.4843 10.9843C13.0906 11.378 12.5568 11.5994 12 11.6Z" fill="#D8F9FA"/>
<path id="Vector_2" d="M12 2C10.0222 2 8.08879 2.58649 6.4443 3.6853C4.79981 4.78412 3.51809 6.3459 2.76121 8.17316C2.00433 10.0004 1.8063 12.0111 2.19215 13.9509C2.578 15.8907 3.53041 17.6725 4.92894 19.0711C6.32746 20.4696 8.10929 21.422 10.0491 21.8078C11.9889 22.1937 13.9996 21.9957 15.8268 21.2388C17.6541 20.4819 19.2159 19.2002 20.3147 17.5557C21.4135 15.9112 22 13.9778 22 12C21.997 9.34876 20.9424 6.80698 19.0677 4.93227C17.193 3.05756 14.6512 2.00302 12 2ZM7.71429 19.4121V18.4286C7.71486 17.8604 7.9408 17.3157 8.34254 16.914C8.74428 16.5122 9.289 16.2863 9.85715 16.2857H14.1429C14.711 16.2863 15.2557 16.5122 15.6575 16.914C16.0592 17.3157 16.2851 17.8604 16.2857 18.4286V19.4121C14.9851 20.1716 13.5061 20.5718 12 20.5718C10.4939 20.5718 9.01488 20.1716 7.71429 19.4121ZM17.7086 18.3757C17.6943 17.4388 17.3126 16.545 16.6457 15.8868C15.9787 15.2287 15.0799 14.8589 14.1429 14.8571H9.85715C8.92013 14.8589 8.02132 15.2287 7.35435 15.8868C6.68739 16.545 6.30567 17.4388 6.29143 18.3757C4.99612 17.2191 4.08267 15.6963 3.67203 14.009C3.26139 12.3218 3.37293 10.5495 3.99189 8.92704C4.61084 7.30455 5.70802 5.90833 7.13813 4.92326C8.56823 3.93819 10.2638 3.41073 12.0004 3.41073C13.7369 3.41073 15.4325 3.93819 16.8626 4.92326C18.2927 5.90833 19.3899 7.30455 20.0088 8.92704C20.6278 10.5495 20.7393 12.3218 20.3287 14.009C19.9181 15.6963 19.0039 17.2191 17.7086 18.3757Z" fill="#D8F9FA"/>
</g>
</svg>
